<svg id="Шар_1" data-name="Шар 1" xmlns="http://www.w3.org/2000/svg" viewBox="0 0 26.2 57"><defs><style>.cls-1{fill:#dadada;}.cls-2,.cls-5{fill:#706f6f;}.cls-3{fill:#1d1d1b;}.cls-4{fill:#f6f6f6;}.cls-5,.cls-6,.cls-9{stroke:#1d1d1b;}.cls-5{stroke-miterlimit:10;}.cls-5,.cls-6{stroke-width:1.43px;}.cls-6,.cls-9{fill:none;stroke-linecap:round;stroke-linejoin:round;}.cls-7{fill:#7d4e24;}.cls-8{fill:#936037;}.cls-9{stroke-width:0.88px;}</style></defs><title>Logo</title><path class="cls-1" d="M35.37,27.81c3,.28,3.83,2.87,3.63,2.91s-3.45.71-3.63,3.05-4.91,1.53-4.91,1.53-5.69.81-5.87-1.53S21.17,31,21,30.72s.7-2.54,3.63-2.91A10.92,10.92,0,0,0,35.37,27.81Z" transform="translate(-18.18 -3.34)"/><path class="cls-1" d="M38.65,21.4A8.67,8.67,0,1,1,30,12.73,8.67,8.67,0,0,1,38.65,21.4Z" transform="translate(-18.18 -3.34)"/><path class="cls-1" d="M33.25,35.61S28.47,50,39,55.09c0,0,1.89.94-.14,1.6-1.47.49-3.41.49-8.92.4-5.5.09-7.44.09-8.92-.4-2-.66-.13-1.6-.13-1.6C31.5,50,26.5,35.48,26.5,35.48l3.59-.24Z" transform="translate(-18.18 -3.34)"/><path class="cls-2" d="M25.86,28.74s8.63,2.94,8.9,6.07l1.47-3L39,30.35l-2.31-2.54L35,28.42,30.2,30Z" transform="translate(-18.18 -3.34)"/><path class="cls-2" d="M32.05,41.21s2.49,14.13-2.71,15.66c0,0,10.37.34,10-.72A3.14,3.14,0,0,0,37.16,54C36.09,53.73,31.84,47.55,32.05,41.21Z" transform="translate(-18.18 -3.34)"/><path class="cls-2" d="M38.64,19.8c.4,9.85-8.76,12.4-14.22,8.36C31.25,28.81,34.07,27.34,38.64,19.8Z" transform="translate(-18.18 -3.34)"/><path class="cls-3" d="M39.21,21.33a9.26,9.26,0,0,1-2.82,6.41A9.53,9.53,0,0,1,30,30.4a9.32,9.32,0,1,1,6.66-15.74A9.44,9.44,0,0,1,39.21,21.33Zm-1.12,0a8,8,0,0,0-2.51-5.6A8,8,0,1,0,30,29.59a7.92,7.92,0,0,0,5.85-2.41A8.18,8.18,0,0,0,38.09,21.33Z" transform="translate(-18.18 -3.34)"/><path class="cls-3" d="M35.73,27.4a4.37,4.37,0,0,1,3.53,2.37,2.48,2.48,0,0,1,.2.56,1.06,1.06,0,0,1,0,.47.56.56,0,0,1-.14.24.5.5,0,0,1-.24.14l-.07,0-.11,0a6.48,6.48,0,0,0-.88.29,4.55,4.55,0,0,0-1.53.93,2.28,2.28,0,0,0-.7,1.48,1.76,1.76,0,0,1-.62,1.14,2.74,2.74,0,0,1-1,.53,10.24,10.24,0,0,1-4.16,0h.17a10.28,10.28,0,0,1-4.29.13,3.34,3.34,0,0,1-1.15-.52A2,2,0,0,1,24,34l-.05-.26,0-.18a3.24,3.24,0,0,0-.13-.33,2.39,2.39,0,0,0-.47-.6,4.92,4.92,0,0,0-1.54-.83l-.46-.16L21,31.53a2.48,2.48,0,0,1-.37-.16,1.73,1.73,0,0,1-.21-.17.91.91,0,0,1-.19-.38,1.6,1.6,0,0,1,0-.37,2.58,2.58,0,0,1,.1-.38,2.62,2.62,0,0,1,.29-.58,4.68,4.68,0,0,1,3.9-2.14l.12.93a4.41,4.41,0,0,0-2.83,1.91,1.61,1.61,0,0,0-.15.34.17.17,0,0,0,0,.1s0,0,0-.12a.51.51,0,0,0-.14-.26.52.52,0,0,0-.11-.1c-.05,0,.05,0,.11,0l.23.08.5.18a6,6,0,0,1,2,1.14,3.53,3.53,0,0,1,.76,1,3.16,3.16,0,0,1,.22.61l.05.32c0,.11,0,.22,0,.24a.67.67,0,0,0,.24.45,2.16,2.16,0,0,0,.68.33A11.09,11.09,0,0,0,30,34.7h.17a9.5,9.5,0,0,0,3.72,0c.59-.15,1-.47,1-.9,0-.1.06-.36.09-.54a3.62,3.62,0,0,1,.2-.55,3.33,3.33,0,0,1,.68-.93,5.51,5.51,0,0,1,1.83-1.14,8.48,8.48,0,0,1,1-.32l.12,0h.06c.06,0-.14,0-.2.1a.55.55,0,0,0-.11.19c0,.1,0,0,0,0a2,2,0,0,0-.13-.36,3.46,3.46,0,0,0-2.8-1.84Z" transform="translate(-18.18 -3.34)"/><path class="cls-4" d="M23.46,22.83C22.89,18.45,26.35,14.2,31,15c.58.1.83-.78.25-.88a7.66,7.66,0,0,0-8.71,8.73c.08.57,1,.58.92,0Z" transform="translate(-18.18 -3.34)"/><path class="cls-3" d="M33.7,35.52a24.65,24.65,0,0,0-1,5.34,19.53,19.53,0,0,0,.28,5.4,12.9,12.9,0,0,0,2.13,4.85,11.76,11.76,0,0,0,4.11,3.32l.08,0,0,0h0a2.63,2.63,0,0,1,.51.71,1.17,1.17,0,0,1,0,1.1,1.61,1.61,0,0,1-.79.59,6.59,6.59,0,0,1-.72.22,14.72,14.72,0,0,1-2.85.28c-1.85,0-3.7,0-5.52,0s-3.66.12-5.52.13a11.3,11.3,0,0,1-2.9-.26,2.65,2.65,0,0,1-1.53-.9,1.24,1.24,0,0,1-.08-1.27,2.17,2.17,0,0,1,.64-.76h0l.08-.05a11.52,11.52,0,0,0,4-3.31,12.66,12.66,0,0,0,2-4.84,19.34,19.34,0,0,0,.22-5.38,24.52,24.52,0,0,0-.38-2.69c-.08-.45-.2-.89-.29-1.33l-.18-.65a.91.91,0,0,1,0-.69l.89-.31c.28.18.3.41.38.65l.18.69c.11.46.23.92.31,1.39a27.17,27.17,0,0,1,.41,2.83A20.88,20.88,0,0,1,28,46.39a13.8,13.8,0,0,1-2.28,5.35,12.92,12.92,0,0,1-4.53,3.68l.1-.06a1,1,0,0,0-.25.29c0,.09,0,0,0,0a2,2,0,0,0,.83.42,11.08,11.08,0,0,0,2.58.25c1.81,0,3.65,0,5.51,0s3.68.1,5.51.09a14.19,14.19,0,0,0,2.64-.21,2.14,2.14,0,0,0,.92-.36c.08,0-.05-.39-.31-.63h0l.12.08a12.86,12.86,0,0,1-4.45-3.61,13.67,13.67,0,0,1-2.3-5.22,20.7,20.7,0,0,1-.3-5.66,25.42,25.42,0,0,1,1-5.57Z" transform="translate(-18.18 -3.34)"/><rect class="cls-5" x="0.85" y="53.9" width="21.91" height="2.38" rx="0.83" ry="0.83"/><path class="cls-4" d="M26.68,33.92c-.05-2.07-1.26-4.3-3.54-4.38-.69,0-.69,1,0,1.07,1.67.06,2.43,1.85,2.47,3.31a.54.54,0,0,0,1.07,0Z" transform="translate(-18.18 -3.34)"/><polyline class="cls-6" points="17.23 19.17 13.91 18.7 13.93 18.42 17.02 16.07"/><polyline class="cls-6" points="6.4 19.17 9.72 18.7 9.69 18.42 6.6 16.07"/><line class="cls-6" x1="6.94" y1="13.95" x2="9.99" y2="16.07"/><line class="cls-6" x1="16.4" y1="13.95" x2="13.36" y2="16.07"/><polygon class="cls-7" points="5.96 11.09 3.83 10.96 1.42 9.84 0.62 8.3 1.88 7.13 3.28 6.64 5.14 6.96 7.57 7.79 9.75 9.16 8.33 10.36 5.96 11.09"/><polygon class="cls-8" points="8.49 5.96 10.89 8.02 15.92 10.81 19.97 11.48 21.25 10.02 21.51 5.59 19.92 2.49 16.68 1.23 14.62 0.27 11.71 1.28 9.72 3.05 8.49 5.96"/><path class="cls-7" d="M37.3,5.35s.85,8.72-3.69,8.44c0,0,4.18,1.86,5.61.56l.64-4-1-3.72Z" transform="translate(-18.18 -3.34)"/><path class="cls-8" d="M21.92,9.68s4.84,1.45,5.85,2.25,3.45,3.31,3.45,3.31l5.61,3.51,5.09.76,2.17-2L43.25,15l-1.51-.64-2.59.4-2.22.36L31.5,12.63,27.17,9.75l-2.39-.56Z" transform="translate(-18.18 -3.34)"/><path class="cls-7" d="M40.23,14s4.05,4.34-5.51,3.33c0,0,3.88,2.26,5.83,1.93s2.77-.5,2.77-.5l.9-2.11-1-2.11Z" transform="translate(-18.18 -3.34)"/><path class="cls-9" d="M21,9.84c2.34-1.09,5.78-.18,5.78-.18s8,6.46,11.83,5.05,4.7.07,5,.53c.58.79.94,4.81-3.89,4.11-3.68-.53-6.68-2.82-9.34-5-.85-.7-1.66-1.39-2.44-2a11.57,11.57,0,0,0-7-2.46s-3,.88-2.19,2.68,4.45,2.34,5.65,2.07,2.67-1.79,5.13-1" transform="translate(-18.18 -3.34)"/><path class="cls-9" d="M26.74,9.66S29.17,1,35,4.68c0,0,6.6.42,3.89,9.9" transform="translate(-18.18 -3.34)"/><path class="cls-7" d="M44.71,11.17" transform="translate(-18.18 -3.34)"/></svg>